<svg width="15" height="15" viewBox="0 0 13 18" fill="none" xmlns="http://www.w3.org/2000/svg">
<path fill-rule="evenodd" clip-rule="evenodd" d="M6.4715 0C2.89368 0 0 2.89368 0 6.47149C0 10.3267 4.08629 15.6425 5.76888 17.6672C6.13868 18.1109 6.81356 18.1109 7.18336 17.6672C8.8567 15.6425 12.943 10.3267 12.943 6.47149C12.943 2.89368 10.0493 0 6.4715 0ZM6.47154 8.78273C5.19573 8.78273 4.16029 7.74729 4.16029 6.47148C4.16029 5.19567 5.19573 4.16023 6.47154 4.16023C7.74735 4.16023 8.78279 5.19567 8.78279 6.47148C8.78279 7.74729 7.74735 8.78273 6.47154 8.78273Z" fill="#989898"/>
</svg>
