<svg width="15" height="15" viewBox="0 0 20 16" fill="none" xmlns="http://www.w3.org/2000/svg">
<path fill-rule="evenodd" clip-rule="evenodd" d="M3 2H17C17.55 2 18 1.55 18 1C18 0.45 17.55 0 17 0H3C2.45 0 2 0.45 2 1C2 1.55 2.45 2 3 2ZM18.16 3.8C18.07 3.34 17.66 3 17.18 3H2.82001C2.34001 3 1.93001 3.34 1.84001 3.8L0.840013 8.8C0.720013 9.42 1.19001 10 1.82001 10H2.00001V15C2.00001 15.55 2.45001 16 3.00001 16H11C11.55 16 12 15.55 12 15V10H16V15C16 15.55 16.45 16 17 16C17.55 16 18 15.55 18 15V10H18.18C18.81 10 19.28 9.42 19.16 8.8L18.16 3.8ZM10 14H4V10H10V14Z" fill="#989898"/>
</svg>
