<svg width="24" height="24" viewBox="0 0 24 24" fill="none" xmlns="http://www.w3.org/2000/svg">
<path fill-rule="evenodd" clip-rule="evenodd" d="M20 4.00833C19.8917 4.00833 19.7833 4.05 19.7083 4.13333L19.05 4.79167C18.8833 4.95833 18.625 4.95833 18.4583 4.79167L17.8 4.13333C17.6333 3.96667 17.375 3.96667 17.2083 4.13333L16.55 4.79167C16.3833 4.95833 16.125 4.95833 15.9583 4.79167L15.3 4.13333C15.1333 3.96667 14.875 3.96667 14.7083 4.13333L14.05 4.79167C13.8833 4.95833 13.625 4.95833 13.4583 4.79167L12.8 4.13333C12.6333 3.96667 12.375 3.96667 12.2083 4.13333L11.55 4.79167C11.3833 4.95833 11.125 4.95833 10.9583 4.79167L10.2917 4.125C10.125 3.95833 9.86667 3.95833 9.7 4.125L9.04167 4.79167C8.875 4.95833 8.61667 4.95833 8.45 4.79167L7.79167 4.125C7.625 3.95833 7.36667 3.95833 7.2 4.125L6.54167 4.79167C6.375 4.95833 6.11667 4.95833 5.95 4.79167L5.29167 4.125C5.21667 4.05 5.10833 4.00833 5 4.00833V20.3333C5.10833 20.3333 5.21667 20.2917 5.29167 20.2083L5.95 19.55C6.11667 19.3833 6.375 19.3833 6.54167 19.55L7.2 20.2083C7.36667 20.375 7.625 20.375 7.79167 20.2083L8.45 19.55C8.61667 19.3833 8.875 19.3833 9.04167 19.55L9.7 20.2083C9.86667 20.375 10.125 20.375 10.2917 20.2083L10.95 19.55C11.1167 19.3833 11.375 19.3833 11.5417 19.55L12.2 20.2083C12.3667 20.375 12.625 20.375 12.7917 20.2083L13.45 19.55C13.6167 19.3833 13.875 19.3833 14.0417 19.55L14.7 20.2083C14.8667 20.375 15.125 20.375 15.2917 20.2083L15.95 19.55C16.1167 19.3833 16.375 19.3833 16.5417 19.55L17.2 20.2083C17.3667 20.375 17.625 20.375 17.7917 20.2083L18.45 19.55C18.6167 19.3833 18.875 19.3833 19.0417 19.55L19.7 20.2083C19.7833 20.2917 19.8917 20.3333 19.9917 20.3333V4.00833H20ZM16.6668 16.3333H8.33351C7.87517 16.3333 7.50017 15.9583 7.50017 15.4999C7.50017 15.0416 7.87517 14.6666 8.33351 14.6666H16.6668C17.1252 14.6666 17.5002 15.0416 17.5002 15.4999C17.5002 15.9583 17.1252 16.3333 16.6668 16.3333ZM16.6668 13H8.33351C7.87517 13 7.50017 12.625 7.50017 12.1666C7.50017 11.7083 7.87517 11.3333 8.33351 11.3333H16.6668C17.1252 11.3333 17.5002 11.7083 17.5002 12.1666C17.5002 12.625 17.1252 13 16.6668 13ZM16.6668 9.66667H8.33351C7.87517 9.66667 7.50017 9.29167 7.50017 8.83334C7.50017 8.375 7.87517 8 8.33351 8H16.6668C17.1252 8 17.5002 8.375 17.5002 8.83334C17.5002 9.29167 17.1252 9.66667 16.6668 9.66667Z" fill="#989898"/>
</svg>
