<svg width="24" height="24" viewBox="0 0 24 24" fill="none" xmlns="http://www.w3.org/2000/svg">
<path fill-rule="evenodd" clip-rule="evenodd" d="M12 4C7.584 4 4 7.584 4 12C4 16.416 7.584 20 12 20C16.416 20 20 16.416 20 12C20 7.584 16.416 4 12 4ZM12.8 17.6H11.2V16H12.8V17.6ZM14.456 11.4L13.736 12.136C13.336 12.544 13.048 12.912 12.904 13.488C12.84 13.744 12.8 14.032 12.8 14.4H11.2V14C11.2 13.632 11.264 13.28 11.376 12.952C11.536 12.488 11.8 12.072 12.136 11.736L13.128 10.728C13.496 10.376 13.672 9.84798 13.568 9.28798C13.464 8.71198 13.016 8.22398 12.456 8.06398C11.568 7.81598 10.744 8.31998 10.48 9.07998C10.384 9.37598 10.136 9.59998 9.824 9.59998H9.584C9.12 9.59998 8.8 9.15198 8.928 8.70398C9.272 7.52798 10.272 6.63198 11.512 6.43998C12.728 6.24798 13.888 6.87998 14.608 7.87998C15.552 9.18398 15.272 10.584 14.456 11.4Z" fill="#737373"/>
</svg>
