<svg width="90" height="60" viewBox="0 0 24 24" fill="none" xmlns="http://www.w3.org/2000/svg">
<path fill-rule="evenodd" clip-rule="evenodd" d="M10.544 6.75073H7.36441L7.85934 4.36606C7.91933 4.0886 7.82935 3.80364 7.63437 3.60116C7.30442 3.27121 6.77199 3.27121 6.44953 3.60116L3.44994 6.60075C3.15748 6.87821 3 7.26066 3 7.6581V12C3 12.8249 3.67491 13.4998 4.4998 13.4998H8.9392C9.53912 13.4998 10.079 13.1398 10.319 12.5924L11.9238 8.84294C12.3437 7.85308 11.6163 6.75073 10.544 6.75073ZM19.4978 10.5002H15.0584C14.4585 10.5002 13.9186 10.8602 13.6786 11.4076L12.0738 15.1571C11.6539 16.1469 12.3738 17.2493 13.4536 17.2493H16.6332L16.1383 19.634C16.0783 19.9114 16.1683 20.1964 16.3632 20.3988C16.6932 20.7288 17.2256 20.7288 17.5481 20.3988L20.5477 17.3993C20.8326 17.1143 20.9901 16.7394 20.9901 16.3419V12C20.9976 11.1751 20.3227 10.5002 19.4978 10.5002Z" fill="#4C8098"/>
</svg>
