<svg width="15" height="15" viewBox="0 0 12 10" fill="none" xmlns="http://www.w3.org/2000/svg">
<path fill-rule="evenodd" clip-rule="evenodd" d="M5.6406 2.75375L5.66578 3.16898L5.2461 3.11814C3.71843 2.92324 2.38383 2.26226 1.25067 1.15216L0.696681 0.601353L0.553988 1.00811C0.251813 1.91483 0.444869 2.87239 1.0744 3.51642C1.41015 3.87233 1.33461 3.92317 0.755438 3.71132C0.553988 3.64353 0.377719 3.59268 0.360931 3.6181C0.302175 3.67742 0.503625 4.44856 0.663106 4.75362C0.881344 5.17733 1.32621 5.59255 1.81305 5.8383L2.22434 6.0332L1.73751 6.04168C1.26746 6.04168 1.25067 6.05015 1.30103 6.2281C1.46891 6.77892 2.13201 7.36362 2.87066 7.61784L3.39108 7.7958L2.93781 8.06697C2.26631 8.45677 1.4773 8.6771 0.688288 8.69405C0.310569 8.70252 0 8.73641 0 8.76184C0 8.84658 1.02404 9.32112 1.61999 9.50755C3.40786 10.0584 5.53148 9.82109 7.1263 8.88047C8.25945 8.21103 9.39261 6.8806 9.92142 5.59255C10.2068 4.90616 10.4922 3.652 10.4922 3.05035C10.4922 2.66054 10.5174 2.6097 10.9874 2.14363C11.2644 1.87246 11.5246 1.57587 11.575 1.49113C11.6589 1.33012 11.6505 1.33012 11.2224 1.47418C10.509 1.7284 10.4083 1.6945 10.7608 1.31317C11.021 1.042 11.3316 0.550509 11.3316 0.406451C11.3316 0.381029 11.2057 0.423399 11.063 0.499665C10.9119 0.584405 10.5761 0.711516 10.3243 0.787782L9.87105 0.93184L9.45976 0.652197C9.23313 0.499665 8.91416 0.330185 8.74629 0.27934C8.31821 0.160704 7.6635 0.177652 7.27738 0.313237C6.22816 0.694568 5.56506 1.67755 5.6406 2.75375Z" fill="#989898"/>
</svg>
